<svg preserveAspectRatio="none" overflow="visible" style="display: block;" width="26" height="26" viewBox="0 0 26 26" fill="none" xmlns="http://www.w3.org/2000/svg">
<g id="sliders-horizontal_Lucide">
<path id="Union" d="M17.333 17.333C17.9313 17.333 18.417 17.8187 18.417 18.417V19.5H22.75C23.3482 19.5 23.8328 19.9848 23.833 20.583C23.833 21.1813 23.3483 21.667 22.75 21.667H18.417V22.75C18.417 23.3483 17.9313 23.833 17.333 23.833C16.7348 23.8328 16.25 23.3482 16.25 22.75V18.417C16.25 17.8188 16.7348 17.3332 17.333 17.333ZM13 19.5C13.5982 19.5 14.0828 19.9848 14.083 20.583C14.083 21.1813 13.5983 21.667 13 21.667H3.25C2.65169 21.667 2.16699 21.1813 2.16699 20.583C2.16717 19.9848 2.6518 19.5 3.25 19.5H13ZM8.66699 9.75C9.26504 9.75018 9.74982 10.235 9.75 10.833V15.167C9.74982 15.765 9.26504 16.2498 8.66699 16.25C8.06879 16.25 7.58318 15.7652 7.58301 15.167V14.083H3.25C2.65169 14.083 2.16699 13.5983 2.16699 13C2.16699 12.4017 2.65169 11.917 3.25 11.917H7.58301V10.833C7.58318 10.2348 8.06879 9.75 8.66699 9.75ZM22.75 11.917C23.3483 11.917 23.833 12.4017 23.833 13C23.833 13.5983 23.3483 14.083 22.75 14.083H13C12.4017 14.083 11.917 13.5983 11.917 13C11.917 12.4017 12.4017 11.917 13 11.917H22.75ZM15.167 2.16699C15.7652 2.16717 16.25 2.6518 16.25 3.25V4.33301H22.75C23.3483 4.33301 23.833 4.81868 23.833 5.41699C23.8328 6.01515 23.3482 6.5 22.75 6.5H16.25V7.58301C16.25 8.18121 15.7652 8.66682 15.167 8.66699C14.5687 8.66699 14.083 8.18132 14.083 7.58301V3.25C14.083 2.65169 14.5687 2.16699 15.167 2.16699ZM10.833 4.33301C11.4313 4.33301 11.917 4.81868 11.917 5.41699C11.9168 6.01515 11.4312 6.5 10.833 6.5H3.25C2.6518 6.5 2.16717 6.01515 2.16699 5.41699C2.16699 4.81868 2.65169 4.33301 3.25 4.33301H10.833Z" fill="#212124"/>
</g>
</svg>
